<svg xmlns="http://www.w3.org/2000/svg" width="24.431" height="24.431" viewBox="0 0 24.431 24.431">
  <path id="Icon_simple-imdb" data-name="Icon simple-imdb" d="M14.567,9.76v.005a.907.907,0,0,0-.428-.071v4.9c.275,0,.448-.061.509-.168a2.412,2.412,0,0,0,.1-.9V10.609a3,3,0,0,0-.034-.641.3.3,0,0,0-.143-.208ZM22.818,0H1.649A1.759,1.759,0,0,0,0,1.625V22.781a1.74,1.74,0,0,0,1.583,1.646.231.231,0,0,0,.046,0H22.848a1.758,1.758,0,0,0,1.583-1.741V1.741A1.755,1.755,0,0,0,22.818,0ZM4.878,15.906H2.939v-7.5H4.878Zm6.657,0H9.843V10.845L9.161,15.9H7.952l-.711-4.947L7.234,15.9h-1.7v-7.5H8.05q.127.8.234,1.6l.275,1.9.45-3.506h2.528v7.5ZM16.6,13.685a6.017,6.017,0,0,1-.106,1.344.986.986,0,0,1-.332.529,1.26,1.26,0,0,1-.58.271,5.627,5.627,0,0,1-1.038.076l0,0H12.195v-7.5h1.452a8.139,8.139,0,0,1,1.8.13,1.505,1.505,0,0,1,.758.428,1.28,1.28,0,0,1,.319.657A8.407,8.407,0,0,1,16.6,11.05v2.634Zm5.033.484a5.023,5.023,0,0,1-.092,1.008,1.08,1.08,0,0,1-.412.578,1.286,1.286,0,0,1-.794.244,2,2,0,0,1-.692-.138,1.615,1.615,0,0,1-.524-.435L19,15.9H17.254v-7.5l-.02,0h1.832v2.443a1.523,1.523,0,0,1,.519-.407,1.943,1.943,0,0,1,.7-.129,1.839,1.839,0,0,1,.672.117,1.116,1.116,0,0,1,.444.336,1.1,1.1,0,0,1,.183.428,5.324,5.324,0,0,1,.045.886v2.091Zm-2.212-2.763c-.122,0-.2.041-.229.122a2.254,2.254,0,0,0-.061.635v1.981a2.36,2.36,0,0,0,.061.634.238.238,0,0,0,.23.136c.122,0,.277-.048.305-.143a3.015,3.015,0,0,0,.047-.686l.031,0V12.16a1.8,1.8,0,0,0-.061-.614c-.045-.1-.2-.143-.321-.143Z" fill="#eee"/>
</svg>
