<svg xmlns="http://www.w3.org/2000/svg" width="24.436" height="24.431" viewBox="0 0 24.436 24.431">
  <path id="Icon_awesome-instagram" data-name="Icon awesome-instagram" d="M12.215,8.189a6.264,6.264,0,1,0,6.264,6.264A6.254,6.254,0,0,0,12.215,8.189Zm0,10.336a4.072,4.072,0,1,1,4.072-4.072A4.08,4.08,0,0,1,12.215,18.525ZM20.2,7.933a1.461,1.461,0,1,1-1.461-1.461A1.458,1.458,0,0,1,20.2,7.933Zm4.149,1.483A7.23,7.23,0,0,0,22.371,4.3a7.278,7.278,0,0,0-5.119-1.973c-2.017-.114-8.063-.114-10.08,0A7.267,7.267,0,0,0,2.054,4.292,7.254,7.254,0,0,0,.081,9.41c-.114,2.017-.114,8.063,0,10.08a7.23,7.23,0,0,0,1.973,5.119,7.287,7.287,0,0,0,5.119,1.973c2.017.114,8.063.114,10.08,0a7.23,7.23,0,0,0,5.119-1.973,7.278,7.278,0,0,0,1.973-5.119c.114-2.017.114-8.057,0-10.074ZM21.739,21.654a4.123,4.123,0,0,1-2.322,2.322c-1.608.638-5.424.491-7.2.491s-5.6.142-7.2-.491a4.123,4.123,0,0,1-2.322-2.322c-.638-1.608-.491-5.424-.491-7.2s-.142-5.6.491-7.2A4.123,4.123,0,0,1,5.014,4.929c1.608-.638,5.424-.491,7.2-.491s5.6-.142,7.2.491a4.123,4.123,0,0,1,2.322,2.322c.638,1.608.491,5.424.491,7.2S22.377,20.052,21.739,21.654Z" transform="translate(0.005 -2.237)" fill="#eee"/>
</svg>
