<svg xmlns="http://www.w3.org/2000/svg" width="33.854" height="23.375" viewBox="0 0 33.854 23.375">
  <g id="Icon_ionic-ios-menu" data-name="Icon ionic-ios-menu" transform="translate(-4.5 -10.125)">
    <path id="Path_11" data-name="Path 11" d="M36.943,13.464H5.911A1.561,1.561,0,0,1,4.5,11.795h0a1.561,1.561,0,0,1,1.411-1.67H36.943a1.561,1.561,0,0,1,1.411,1.67h0A1.561,1.561,0,0,1,36.943,13.464Z" transform="translate(0 0)" fill="#eee"/>
    <path id="Path_12" data-name="Path 12" d="M36.943,20.214H5.911A1.561,1.561,0,0,1,4.5,18.545h0a1.561,1.561,0,0,1,1.411-1.67H36.943a1.561,1.561,0,0,1,1.411,1.67h0A1.561,1.561,0,0,1,36.943,20.214Z" transform="translate(0 3.268)" fill="#eee"/>
    <path id="Path_13" data-name="Path 13" d="M36.943,26.964H5.911A1.561,1.561,0,0,1,4.5,25.295h0a1.561,1.561,0,0,1,1.411-1.67H36.943a1.561,1.561,0,0,1,1.411,1.67h0A1.561,1.561,0,0,1,36.943,26.964Z" transform="translate(0 6.536)" fill="#eee"/>
  </g>
</svg>
