<svg xmlns="http://www.w3.org/2000/svg" width="29.145" height="20.492" viewBox="0 0 29.145 20.492">
  <path id="Icon_awesome-youtube" data-name="Icon awesome-youtube" d="M29.586,7.706a3.662,3.662,0,0,0-2.577-2.593C24.736,4.5,15.622,4.5,15.622,4.5s-9.114,0-11.387.613A3.662,3.662,0,0,0,1.659,7.706a38.417,38.417,0,0,0-.609,7.061,38.417,38.417,0,0,0,.609,7.061A3.608,3.608,0,0,0,4.236,24.38c2.273.613,11.387.613,11.387.613s9.114,0,11.387-.613a3.608,3.608,0,0,0,2.577-2.552,38.417,38.417,0,0,0,.609-7.061,38.417,38.417,0,0,0-.609-7.061ZM12.642,19.1V10.433l7.617,4.334L12.642,19.1Z" transform="translate(-1.05 -4.5)" fill="#eee"/>
</svg>
